<svg width="48" height="48" viewBox="0 0 48 48" fill="none" xmlns="http://www.w3.org/2000/svg">
<path d="M29.7671 37V37.75C29.7671 40.9257 27.1875 43.5 23.9995 43.5C20.8117 43.4998 18.2329 40.9255 18.2329 37.75V37H29.7671ZM23.9995 4.5C31.3395 4.5 37.2886 10.4335 37.2886 17.7578C37.2886 20.5658 36.4133 23.1619 34.9185 25.3076C34.5309 25.8641 34.1272 26.4142 33.7192 26.9697L33.7183 26.9707C32.2576 28.9744 30.724 31.0613 29.9067 33.4922H18.0972C17.2872 31.0641 15.7519 28.9685 14.2817 26.9619H14.2808C14.0768 26.6842 13.8736 26.4082 13.6733 26.1318L13.0815 25.2998C11.5873 23.1626 10.7114 20.5586 10.7114 17.75C10.7114 10.4339 16.6595 4.50024 23.9995 4.5ZM23.9995 8.5C18.8754 8.50024 14.7251 12.6368 14.7251 17.75C14.7251 18.715 15.5148 19.5 16.479 19.5C17.4432 19.5 18.2329 18.7149 18.2329 17.75C18.2329 14.5745 20.8117 12.0002 23.9995 12C24.9638 12 25.7534 11.215 25.7534 10.25C25.7534 9.28504 24.9638 8.5 23.9995 8.5Z" stroke="#70E61C"/>
</svg>
