<svg width="48" height="48" viewBox="0 0 48 48" fill="none" xmlns="http://www.w3.org/2000/svg">
<path d="M20.0769 2.53333C22.9231 2.61 25.2308 4.98667 25.2308 7.82333V9.20333V10.7367H26.7692H33.3077C34.3846 10.7367 35.4615 11.1967 36.2308 11.9633C37 12.73 37.4615 13.7267 37.3846 14.8V21.3167V22.85H38.9231H40.3077C43.2308 22.85 45.6154 25.15 45.6154 27.9867C45.6154 30.9 43.3077 33.2767 40.3846 33.2767H38.9231H37.3846V34.81V41.3267C37.3846 43.6267 35.5385 45.4667 33.3077 45.4667H25.6154V42.3233C25.6154 41.71 25.4615 41.02 25.2308 40.4833C25 39.87 24.6154 39.41 24.1538 38.95C23.0769 37.8767 21.5385 37.34 20 37.34H19.9231C18.5385 37.34 17.1538 37.8767 16 38.7967C14.9231 39.7933 14.3077 41.02 14.3077 42.4767V45.5433H6.76923C5.69231 45.5433 4.61538 45.0833 3.76923 44.3167C3 43.55 2.53846 42.4767 2.53846 41.4033V33.89H5.69231C7.07692 33.89 8.38462 33.3533 9.38461 32.28C9.92308 31.7433 10.3846 31.0533 10.6923 30.3633C11 29.6733 11.1538 28.9067 11.1538 28.14C11.0769 24.9967 8.53846 22.4667 5.61538 22.4667H2.53846V14.8C2.53846 13.7267 3 12.6533 3.76923 11.8867C4.53846 11.12 5.61538 10.7367 6.76923 10.7367H13.3077H14.8462V9.20333V7.74667C14.8462 7.05667 15 6.36667 15.2308 5.75333C15.5385 5.14 15.9231 4.52667 16.3846 4.06667C16.8462 3.60667 17.4615 3.22333 18.0769 2.91667C18.6923 2.68667 19.3846 2.53333 20.0769 2.53333ZM20.0769 1C19.2308 1 18.3077 1.15333 17.5385 1.46C16.6923 1.76667 15.9231 2.30333 15.3077 2.91667C14.6923 3.53 14.1538 4.29667 13.8462 5.14C13.5385 5.98333 13.3077 6.82667 13.3077 7.74667V9.20333H6.76923C5.30769 9.20333 3.84615 9.74 2.76923 10.8133C1.61538 11.8867 1 13.3433 1 14.8V24H5.61538C7.69231 24 9.53846 25.84 9.53846 27.9867C9.53846 28.6 9.46154 29.1367 9.23077 29.6733C9 30.21 8.69231 30.67 8.30769 31.0533C7.61538 31.7433 6.69231 32.2033 5.69231 32.2033H1V41.25C1 42.7833 1.61538 44.24 2.69231 45.3133C3.76923 46.3867 5.23077 47 6.76923 47H15.8462V42.4C15.8462 41.1733 16.4615 40.33 17 39.87C17.8462 39.18 18.8462 38.7967 19.9231 38.7967H20C21.1538 38.7967 22.3077 39.2567 23.0769 40.0233C23.3846 40.33 23.6154 40.7133 23.7692 41.0967C23.9231 41.48 24 41.94 24 42.3233V47H33.1538C36.2308 47 38.7692 44.47 38.7692 41.3267V34.81H40.2308C43.9231 34.81 47 31.7433 47 27.9867C47 24.3067 43.9231 21.3167 40.1538 21.3167H38.7692V14.8C38.7692 11.7333 36.1538 9.20333 33.1538 9.20333H26.6154V7.82333C26.7692 4.14333 23.7692 1.07667 20.0769 1Z" fill="#70E61C"/>
</svg>
